<svg version="1.2" xmlns="http://www.w3.org/2000/svg" viewBox="0 0 856 682" width="856" height="682">
	<title>undraw_learning-sketchingsh</title>
	<style>
		.s0 { fill: #202020 } 
		.s1 { fill: #ffb6b6 } 
		.s2 { opacity: .1;fill: #000000 } 
		.s3 { fill: #f1bf36 } 
		.s4 { fill: #ffffff } 
		.s5 { fill: #3f3d56 } 
		.s6 { fill: #282828 } 
		.s7 { fill: #cccccc } 
	</style>
	<path class="s0" d="m571.6 149.3q-0.2 0.1-0.5 0.1c-4.5 0.8-31.4 4.9-58.5-5.4-11.5-4.4-7.6-5.5-33.2-20.7-30-17.9-37.7-17.7-40-26.1-4.4-16.6 19.4-42.7 35.2-41 4.1 0.5 8.6 2.9 15.5 1.3 1.5-0.4 8.2-2 11.4-7.5 2.9-4.9 0.4-8.5 1.6-12.5 3.1-10.6 28.5-15.9 50.8-12.1 12.9 2.1 22.9 8 42.3 19.6 33.9 20.2 50.8 30.3 54.6 45.8 3.6 14.7-5 21.1 1.2 36.8 5.9 14.6 15.2 13.6 18.4 25.5 5.2 19-14 40-21.9 48.7-8.8 9.5-17.1 14.8-28.2 21.7-13.9 8.8-20.9 13.1-29.3 12.7-15.1-0.8-60.2 1.9-60.8-10.6-0.2-4.7-54.9-0.9-28-51.5 3.3-6.3 68 0.4 68.9-3.2"/>
	<path fill-rule="evenodd" class="s1" d="m597.8 181.8l46.5 69.3-133.5 27 8.5-86.8 78.5-9.5z"/>
	<path fill-rule="evenodd" class="s2" d="m597.8 181.8l46.5 69.3-133.5 27 8.5-86.8 78.5-9.5z"/>
	<path fill-rule="evenodd" class="s3" d="m500.8 233.1l144-6 64 35-3 225 67 127-338-64 26-96-12-202 52-19z"/>
	<path class="s4" d="m3.9 670.2c-4.6-7.2-5.2-16.2-1.5-23.9l54.8-115.2c4.1-8.6 12.9-14.1 22.4-14.1h692.3c9.2 0 17.7 5.1 22 13.3l58.7 111.9c4.1 7.8 3.8 16.9-0.7 24.4-4.5 7.5-12.4 11.9-21.2 12l-805.8 3.2h-0.1c-8.5 0-16.3-4.3-20.9-11.6z"/>
	<path class="s5" d="m3.9 670.2c-4.6-7.2-5.2-16.2-1.5-23.9l54.8-115.2c4.1-8.6 12.9-14.1 22.4-14.1h692.3c9.2 0 17.7 5.1 22 13.3l58.7 111.9c4.1 7.8 3.8 16.9-0.7 24.4-4.5 7.5-12.4 11.9-21.2 12l-805.8 3.2h-0.1c-8.5 0-16.3-4.3-20.9-11.6zm75.7-150.6c-8.5 0-16.4 5-20 12.6l-54.8 115.2c-3.3 6.9-2.8 15 1.3 21.4 4.1 6.5 11.1 10.4 18.7 10.4h0.1l805.8-3.2c7.8-0.1 14.9-4.1 19-10.8 4-6.7 4.2-14.8 0.6-21.7l-58.7-112c-3.9-7.4-11.4-11.9-19.7-11.9 0 0-692.3 0-692.3 0z"/>
	<path class="s6" d="m707.4 637.7l-285.6-19.6c-4.3-0.3-7.6-3.1-8.6-7.3-1-4.1 0.7-8.1 4.3-10.3l63.2-37.9c1.6-1 3.5-1.4 5.3-1.3l247.1 11.2c3.3 0.1 6.2 1.9 7.8 4.8 1.6 2.8 1.7 6.2 0.2 9.1l-24.6 46.3c-1.7 3.1-4.9 5.1-8.4 5.1q-0.3 0-0.7-0.1z"/>
	<path fill-rule="evenodd" class="s4" d="m419.3 606.6l284.5 19.5 22.5-48.5-244-9.5-63 38.5z"/>
	<path fill-rule="evenodd" class="s1" d="m559.3 205.1c-47.3 0-85.5-38.2-85.5-85.5 0-47.2 38.2-85.5 85.5-85.5 47.3 0 85.5 38.3 85.5 85.5 0 47.3-38.2 85.5-85.5 85.5z"/>
	<path class="s6" d="m586.8 125.2q-0.2 0-0.5 0.1c-4.5 0.7-31.4 4.8-58.5-5.5-11.5-4.4-7.6-5.5-33.2-20.7-30-17.8-37.7-17.7-39.9-26-4.5-16.7 19.3-42.8 35.1-41.1 4.1 0.5 8.6 3 15.5 1.3 1.5-0.4 8.2-2 11.4-7.5 2.9-4.9 0.5-8.5 1.6-12.5 3.1-10.6 28.6-15.8 50.9-12.1 12.8 2.1 22.8 8 42.2 19.6 33.9 20.3 50.8 30.4 54.6 45.9 3.6 14.7-5 21 1.3 36.7 5.8 14.7 15.1 13.7 18.3 25.5 5.2 19.1-13.9 40-21.9 48.7-8.7 9.6-17.1 14.8-28.2 21.8-13.9 8.7-20.9 13.1-29.2 12.6-15.2-0.8-30.3-14.5-30.9-27.1-0.2-4.7 1.7-6.1 6.6-22.3 2-6.7 3.4-12.3 4.3-15.9"/>
	<path class="s3" d="m645.4 583.2c5.5 0.2 9.7 5.2 10 10.5 0.3 5.5-3.5 10.6-8.2 13.3-5.4 3.1-12.2 3.6-18.3 3-5.4-0.4-11.4-2.2-15-6.7-2.9-3.8-4-9.6-1.5-13.9 2.5-4.3 7.8-5.5 12.3-3.8 4.7 1.9 7.7 6.2 7.7 11.2 0.1 5.7-3.2 10.9-7.7 14-5 3.3-11.2 4.4-17 4.4-6.4 0-12.7-1.4-18.6-3.9-5.5-2.3-11-5.6-14.9-10.2-3.7-4.3-5.9-10.2-3.9-15.8 1.7-4.5 6-7.3 10.8-6.9 4.5 0.3 8.9 2.9 10.9 7 2.2 4.7 1.2 10.2-1.6 14.4-3.3 4.7-8.4 7.4-14.2 7.8-6.1 0.4-12.1-1.7-17.1-5.1-4.7-3.1-8.8-7.1-13.8-9.7-2.4-1.2-5-2-7.7-2-3.5 0-6.8 1.1-10.2 1.8-2.8 0.6-5.8 0.9-8.6 0-2.4-0.8-4.7-2.2-6.2-4.3-1.4-1.9-1.9-4.4-1.1-6.7 0.6-1.8 3.5-1 2.9 0.8-1.5 4.2 3.6 7.3 7.2 7.7 2.7 0.3 5.5-0.5 8.1-1.1 2.7-0.6 5.5-1.3 8.3-1.2 10 0.2 16.6 8.8 24.7 13.4 8.4 4.9 20.8 5.2 26-4.4 1.9-3.6 2.3-8.2-0.3-11.5-2.1-2.8-6-4.4-9.4-3.9-4.4 0.7-6.6 4.9-6.4 9 0.2 5 3.7 9.1 7.5 12.2 8.3 6.7 19.4 10.1 30.1 9.5 5-0.3 10.3-1.6 14.2-4.9 3.4-2.9 5.7-7.6 4.9-12.1-0.7-3.9-4-6.8-7.9-7.2-4.1-0.4-7.2 2.5-7.4 6.5-0.2 4.5 2.5 8.3 6.4 10.4 4.4 2.3 9.8 2.6 14.7 2.3 5.2-0.2 10.6-1.6 14.2-5.6 3.1-3.3 4.3-8.4 1.4-12.3-1.2-1.7-3.1-2.9-5.3-3-1.9-0.1-1.9-3.1 0-3z"/>
	<path class="s6" d="m508.7 580l1.5-9.5 84.9-162.2c1.4-2.7 4.7-3.7 7.4-2.3 2.7 1.4 3.7 4.7 2.3 7.4l-84.8 162.2-6.9 6.7c-0.9 0.8-2 0.9-3 0.4-1.1-0.5-1.6-1.6-1.4-2.7z"/>
	<path class="s1" d="m566.5 476.8c9.6 1.8 18.6 5.9 26.3 11.9l0.4 0.1 0.1-0.5 92.5 14.5-6.7-123 70.1-38.4-16.5 207.9c-3.6 13.3-17.4 21.1-30.6 17.3l-117.8-33.9 0.3-1.5-0.4-0.1c-9.4 2.6-19.3 2.8-28.8 0.8-23.9-4.9-40.8-21.1-37.7-36.3 3.1-15.2 24.9-23.7 48.8-18.8z"/>
	<path class="s3" d="m629.8 284.1l79-22c0 0 41.5 30.5 46.5 63.5 0.6 4 2.2 186.8 0.5 191.5-12.9 35.3-84-21-84-21z"/>
	<path class="s6" d="m287.1 612.7l-8.2-7c-1.2-1-2.7-1.7-4.3-2l-182.4-30.4c-4.2-0.7-7.3-3.7-8.1-7.9-0.8-4.1 1-8 4.6-10.2l65.1-39.1c2.2-1.3 4.8-1.7 7.2-1.1l231.4 52.2c4.5 1.1 7.5 4.7 7.7 9.3 0.1 4.6-2.7 8.4-7.1 9.7l-96.7 28.5q-1.4 0.4-2.8 0.4c-2.3 0-4.6-0.8-6.4-2.4z"/>
	<path class="s1" d="m199.2 385.9c9.1 3.6 17.1 9.3 23.5 16.7l0.4 0.2 0.2-0.4 87.9 32.1 93.9-152 51.9 32.1-108.8 174.6c-6.1 12.4-21.1 17.3-33.4 11l-108.9-56 0.5-1.4-0.4-0.2c-9.7 0.7-19.4-1-28.4-4.9-22.5-9.3-35.9-28.5-29.9-42.9 5.9-14.3 29-18.3 51.5-8.9z"/>
	<path class="s3" d="m505.9 309.9l-41.6-62.1c0 0-49.4 9.8-69.8 36.2-2.5 3.3-89.9 130.1-90.5 135.7-3.9 38.7 96.6 56.8 96.6 56.8z"/>
	<path class="s6" d="m282.6 614.6l-209.2-28.9c-7-1-12.8-6-14.7-12.8l-48-168.2c-1.7-5.7-0.5-11.6 3.3-16.1 3.7-4.6 9.3-7 15.2-6.6l210.7 16.2c7.7 0.6 14.1 5.9 16 13.3l46.4 181c1.5 5.7 0 11.8-3.9 16.3-3.4 3.8-8.3 6-13.3 6q-1.3 0-2.5-0.2z"/>
	<path class="s7" d="m236 270.2c1.2 1.3 5.6-0.1 14.5-2.9 6.7-2.1 7.7-2.9 8.3-3.4 2.3-2 2.9-4 5.1-13.1 4-16.2 4.1-17.8 6.2-21.3 0.7-1.2 2.4-4 2-4.3-0.4-0.4-2.4 2.5-5.9 3.7-3.5 1-5.1-0.7-8-0.2-3.9 0.5-6.1 4.2-9.7 10.1-3.2 5.2-3.6 7.3-8 17.6-1.3 3-2.3 5.2-3.1 7q-13 12.3-25.9 24.7 0.3-0.4 0.5-0.7c3.8-5.8 4.3-8.9 4.2-11.3-0.1-3.7-1.9-6.6-5.5-12.3-3.5-5.5-6.9-9.1-10.9-13.4-5.3-5.7-8-8.5-9-8.4-7.6 1.4-9.6 52.7-0.1 61.9-1.3 1-2.4 2-3.2 2.9-8.2-9-22.1-19.1-37.5-20.3-9.5-0.8-14.7 2.2-16.4 3.2-7.5 4.8-12 14.3-9.7 16.9 2.1 2.5 8.1-3.1 20-2.8 8.3 0.2 14.8 3.2 18.6 5 8.1 3.7 11 7.4 17 9.9-2.8 2.3-5 5.2-6.4 7.9q-0.7 0.7-1.5 1.5c-6.1-3.5-13-6-20.2-6.6-9.5-0.8-14.8 2.2-16.4 3.2-5.1 3.2-8.8 8.5-10 12.5q-1.1 0.2-2.1 0.5c-2.3-5.2-9.2-10.7-15.5-13.4-11-4.8-25.2-3.5-26.8 1q0 0.2 0 0.4 1.8-14.5 4.8-28.9 0.1 0.4 0.3 0.9c2.7 6.8 10 13.3 20 16.7 7.8 2.6 11.1 1.3 11.9 0.9 0.8-0.4 4.3-1.9 5.1-4.8 1.6-5.4-8-21.5-14-16.1-19.4 17.3-22.1 3.3-22.9 0.9q2.4-11.3 5.6-22.5 0.1 0 0.1 0.1c4.3 5.1 12.4 8.8 22 8.9 7.5 0.1 10-2 10.6-2.5 0.6-0.6 3.1-2.8 3-5.6-0.1-5.1-9.3-9.3-16.6-10-6.7-0.7-14 1.4-17.6 4q2.5-8.4 5.4-16.7c4.9 2 11.9 1.7 18.7-1.4 5.7-2.5 6.8-4.9 7.1-5.5 0.2-0.6 1.3-3.2 0.3-5.2-1.9-3.8-10.2-3.7-15.9-1.7-2.3 0.8-4.6 2.1-6.5 3.5q5.1-13.6 11.1-27.1l-4-1q-7.6 17.2-13.3 34.8c-0.5-3.5-1.7-7.1-3.3-10.1-4.6-8.7-14.4-15.3-17.8-13.2-0.6 0.4-0.9 1.1-1.2 2-2 6.6-0.5 15.8 4.9 24.2 4.2 6.7 7.5 7.6 8.3 7.8 0.7 0.2 3.5 1 5.8 0q-2.3 7.8-4.3 15.7c-1.5-3.8-4.6-7.9-7.8-10.7-7.4-6.6-19-9.2-21.3-6-0.5 0.6-0.5 1.4-0.4 2.2 0.4 7 5.2 15 13.2 21 6.3 4.7 9.7 4.4 10.5 4.3 0.6-0.1 2.1-0.3 3.6-0.9q-2.1 9.6-3.6 19.3c-2.1-7.3-9.2-16.3-15.9-13.4-11.8 5.1-25.7-2.7-27.3 0.7-0.4 0.9 0 1.8 0.3 2.8 3.1 8 11.6 15.8 23.2 19.9 9.2 3.2 13 1.7 14 1.2 0.7-0.3 2.8-1.2 4.4-2.8q-1.7 12.4-2.7 25c-2.4-5.4-9.4-11.1-15.9-14-11.4-5.1-26.4-4-28 0.7-0.3 1-0.1 1.9 0.3 2.9 3.2 8.2 11.9 16.2 23.8 20.4 9.4 3.3 13.3 1.7 14.4 1.3 0.7-0.4 3.3-1.4 4.9-3.5q-0.3 5.8-0.4 11.6-0.1 1.7-0.1 3.4-0.2 0.3-0.3 0.6c-0.4 1-0.1 1.9 0.2 2.9q0 1.1 0 2.1c-2.1-1.9-4.6-4.7-7.6-8.8-2.7-3.7-5.2-1-6.9 2.2-2.6-0.6-5-0.3-7 1.5-13 12.2-27.6 5.8-27.8 9.4-0.1 1 0.5 1.9 1.2 2.8 5.7 7.2 16.8 12.5 30.1 13.1 10.4 0.4 13.9-2.4 14.8-3.2 0.3-0.2 0.9-0.8 1.7-1.6q0.9 0.7 1.7 1.3 0.4 10.4 1.3 20.8c-0.5 0.1-1 0.2-1.3 0.2-5.1 0.5-6.8-6.3-14.4-8.8-2.5-0.8-7.4-1.7-9.9 0-0.4 0.3-1.7 1.2-3.6 2-1.2 0.5-2.1 0.7-2.4 0.8-3.1 0.9-6 3.2-8 4.8-3.7 3-5.5 4.5-6.4 7.2-0.2 0.8-1 3.2 0 5.5 0.5 1.1 1.7 2.8 6 4.4 2.6 1 10.1 3.9 19.1 0.8 2.1-0.7 0.5-0.4 8.4-4.4 6.2-3.1 9.8-4.5 10.4-7.5 0.2-1.1 0-2.4 0.8-2.8 0.4-0.3 0.9-0.2 1.5 0q0.8 8.4 1.9 16.7h-7.1c-9.4 0-17.8 5.3-22 13.7l-26.6 53.6c-1.6 3.4-2.5 7.2-2.5 10.9v137.8c0 13.6 11 24.6 24.6 24.6h62c13.6 0 24.6-11 24.6-24.6v-126.8c0-3.1-0.6-6.2-1.7-9l-25.3-64.5c-3.1-7.8-9.7-13.4-17.7-15.1q3.9-4.5 7.7-9c3.2 1.5 6.8 2.8 10.6 3.7 10.2 2.4 14.1 0.3 15.1-0.3 1-0.6 5.1-2.8 5.8-6.6q0.1-0.6 0.1-1.2c10.4 8.4 15.8 12.6 19.8 11.2 3.4-1.2 5.3-5.1 6.4-8.6q1.7 0.2 3.7 0.5c14.2 1.9 21.4 2.7 24.1-0.6 3.8-4.7 0.2-13.7-0.8-16.1-2.1-5.4-5.4-8.7-7.5-10.7-2.7-2.6-10.3-10-22.3-10.9-2.6-0.3-5-0.1-7.4 0.4q-1.2-1.1-2.6-2.2c-1.9-1.4-3.7-2.4-5.7-3.1q4.5-5 9.1-9.9 0.7 0.3 1.3 0.6c10 4.6 12.1 9.1 21.7 11.5 4.3 1.1 9.2 2.3 10.4 0.5 2.2-3.3-7-16.7-21.1-25.7q1.4-1.6 2.9-3.1c1.3 0.6 2.4 1.1 3.4 1.6 9.9 4.6 12.1 9.1 21.6 11.4 4.3 1.1 9.2 2.3 10.4 0.5 2-2.9-5.1-13.9-16.7-22.7 3.2-1 7.4-2.1 12.9-2 8.3 0.3 14.7 3.3 18.6 5.1 9.9 4.6 12.1 9.1 21.6 11.5 4.4 1 9.3 2.2 10.5 0.4 3.2-4.8-18.6-32.1-44.6-34.2-2-0.2-3.9-0.2-5.5 0q-0.3-0.6-0.7-1.2c8.8 0.3 26-2.2 40.6 8 4.2 3 12.4 10 26.2 15.7 4.4 1.8 6.6 2.7 7.2 2 2.1-2.7-15.9-24.9-41.4-35.8-10.1-4.3-16.3-4.7-20.7-4q1-1.2 2-2.4 14.8-14.6 30-28.8c-0.5 1.5-0.5 2.3 0.1 2.9zm-127.1 120.9c-11.2-3.6-24.8-1.7-28.3 2.4q-0.8-5.5-1.3-10.9c5.1 2.8 10.4 3.6 20.5 4.9 4.3 0.6 7.9 1.1 11 1.4 0.4 1.1 0.9 2.1 1.4 3.1q0.1 0.1 0.2 0.3l-0.1 0.1q-1.7-0.8-3.4-1.3zm-29.8-49.1c0.4-1 0.4-2.2 0.1-3.3q0.5-6.4 1.3-12.6c0 0.6 0.2 1.3 0.5 1.9 3.1 7.9 11.5 15.4 22.9 19.2 2.2 0.8 4 1.2 5.6 1.5q-1 1.8-1.6 3.5c-3.9-3.1-8.9-5.4-14.6-3-1.6 0.7-2.5 3.1-3.3 5.9-5.3 0.1-9.7 1.2-11.8 3.1q0-1.2 0.1-2.3 0.1-6.7 0.6-13.3 0.1-0.3 0.2-0.6zm-0.8 22.8q0.3 0.7 0.7 1.4-0.4-0.3-0.7-0.6 0-0.4 0-0.8zm8.9 56.7q-0.9-0.1-1.8-0.2c-1.5-7.2-2.8-14.3-3.9-21.5 2.9 4.7 7.7 8.9 13.8 12.2q-4 4.7-8.1 9.5zm47.3-53.9c-3.8-1.2-8.3-1.8-14.5-2.5-1.6-2.2-3.2-3.8-4.4-5-0.7-0.6-1.6-1.8-2.9-3.3 3.3-1.1 8.3-3 15.3-2.8 6.4 0.2 11.7 2 15.6 3.7q-4.6 4.9-9.1 9.9zm21.6-23.3c-3.8-2.3-7.8-4.2-12.1-5.6q0.6 0 1.3 0c5.3 0.2 9.8 1.5 13.4 2.8q-1.3 1.4-2.6 2.8z"/>
</svg>